<?xml version="1.0" encoding="UTF-8" standalone="no"?>
<!-- Created with Inkscape (http://www.inkscape.org/) -->

<svg
   width="100mm"
   height="100mm"
   viewBox="0 0 100 100"
   version="1.1"
   id="svg1"
   sodipodi:docname="logo.svg"
   inkscape:version="1.4 (86a8ad7, 2024-10-11)"
   xmlns:inkscape="http://www.inkscape.org/namespaces/inkscape"
   xmlns:sodipodi="http://sodipodi.sourceforge.net/DTD/sodipodi-0.dtd"
   xmlns="http://www.w3.org/2000/svg"
   xmlns:svg="http://www.w3.org/2000/svg">
  <sodipodi:namedview
     id="namedview1"
     pagecolor="#ffffff"
     bordercolor="#000000"
     borderopacity="0.25"
     inkscape:showpageshadow="2"
     inkscape:pageopacity="0.0"
     inkscape:pagecheckerboard="0"
     inkscape:deskcolor="#d1d1d1"
     inkscape:document-units="mm"
     inkscape:zoom="4"
     inkscape:cx="217"
     inkscape:cy="167.875"
     inkscape:window-width="2560"
     inkscape:window-height="1369"
     inkscape:window-x="-8"
     inkscape:window-y="-8"
     inkscape:window-maximized="1"
     inkscape:current-layer="svg1"
     showgrid="false" />
  <defs
     id="defs1" />
  <circle
     style="fill:#000000;fill-opacity:1;stroke:#27ae60;stroke-width:1.94124;stroke-dasharray:none"
     id="path1"
     cx="116.7555"
     cy="46.415688"
     r="12.800537" />
  <path
     style="display:inline;fill:#27ae60;stroke:none;stroke-width:0.331853;fill-opacity:1"
     d="M 48.913505,82.53413 C 44.059137,82.295177 39.906029,81.259612 35.775225,79.258144 27.120936,75.064931 20.727513,67.171285 18.411986,57.820594 c -0.664138,-2.681957 -0.9425,-4.993589 -0.9425,-7.826935 0,-3.661776 0.510795,-6.82262 1.659281,-10.267802 3.898276,-11.693877 13.994652,-20.15138 26.19759,-21.945126 2.943141,-0.432622 6.377167,-0.433006 9.346333,-0.0011 13.439833,1.955256 24.294776,12.108572 27.147113,25.392413 0.49038,2.283787 0.71071,4.398565 0.71071,6.821562 0,1.801402 -0.07661,2.909716 -0.318485,4.607348 -1.718316,12.060389 -10.100065,22.205005 -21.615605,26.161844 -2.545164,0.874547 -5.397852,1.471556 -7.99704,1.673607 -0.990493,0.07703 -3.015581,0.130661 -3.685878,0.09767 z m 4.442798,-3.411146 c 2.149764,-0.272449 4.081806,-0.707933 5.99655,-1.351623 8.699896,-2.924696 15.512414,-9.73769 18.423095,-18.424373 1.133761,-3.383623 1.567297,-6.289673 1.492653,-10.005445 -0.06452,-3.211641 -0.499946,-5.752073 -1.491375,-8.701211 -2.925976,-8.703699 -9.720678,-15.498401 -18.424373,-18.424375 -2.949141,-0.99143 -5.489572,-1.426856 -8.701215,-1.491376 -3.715768,-0.07465 -6.621818,0.35889 -10.005442,1.492653 -9.445068,3.164794 -16.66434,10.973701 -19.076923,20.635036 -0.56649,2.268542 -0.788547,3.986402 -0.838827,6.489273 -0.07465,3.715772 0.35889,6.621822 1.492652,10.005445 3.31548,9.894773 11.661571,17.269649 21.918514,19.367906 0.941322,0.192565 2.427894,0.411163 3.389692,0.498446 1.019096,0.09248 4.851362,0.03304 5.824999,-0.09036 z"
     id="path2" />
  <path
     id="rect10"
     style="fill:#27ae60;stroke-width:1.51586;fill-opacity:1;stroke:none"
     d="m 46.091516,68.756731 h 7.816969 v 13.679696 h -7.816969 z m 25.993987,1.022888 H 27.914497 L 50,31.526407 Z M 66.673755,52.21525 H 33.326245 L 50,23.335459 Z M 60.29461,35.394358 H 39.70539 L 50,17.563573 Z" />
</svg>
