<?xml version="1.0" encoding="UTF-8" standalone="no"?>
<!-- Created with Inkscape (http://www.inkscape.org/) -->

<svg
   width="100mm"
   height="100mm"
   viewBox="0 0 100 100"
   version="1.1"
   id="svg1"
   sodipodi:docname="logo.svg"
   inkscape:version="1.4 (86a8ad7, 2024-10-11)"
   xmlns:inkscape="http://www.inkscape.org/namespaces/inkscape"
   xmlns:sodipodi="http://sodipodi.sourceforge.net/DTD/sodipodi-0.dtd"
   xmlns="http://www.w3.org/2000/svg"
   xmlns:svg="http://www.w3.org/2000/svg">
  <sodipodi:namedview
     id="namedview1"
     pagecolor="#ffffff"
     bordercolor="#000000"
     borderopacity="0.25"
     inkscape:showpageshadow="2"
     inkscape:pageopacity="0.0"
     inkscape:pagecheckerboard="0"
     inkscape:deskcolor="#d1d1d1"
     inkscape:document-units="mm"
     inkscape:zoom="3.0876875"
     inkscape:cx="188.81444"
     inkscape:cy="188.97638"
     inkscape:window-width="2560"
     inkscape:window-height="1369"
     inkscape:window-x="-8"
     inkscape:window-y="-8"
     inkscape:window-maximized="1"
     inkscape:current-layer="svg1" />
  <defs
     id="defs1" />
  <g
     id="layer1">
    <g
       id="g17"
       transform="translate(-4.9e-5,3.2979872)">
      <path
         d="m 50.000049,10.818978 -9.326046,14.610478 h 4.088639 l 5.237407,-8.119918 5.237406,8.119918 h 4.08864 z"
         style="fill:#27ae60;stroke-width:1.334"
         id="path16" />
      <path
         d="m 55.237455,25.429456 -5.237406,-8.119918 -5.237407,8.119918 z"
         style="fill:#27ae60;stroke-width:1.334"
         id="path15" />
      <path
         d="M 55.237455,25.429456 H 44.762642 L 31.085441,46.63488 h 7.879622 L 50.000049,29.293302 61.035034,46.63488 h 7.879623 z"
         style="fill:#27ae60;stroke-width:1.334"
         id="path13" />
      <path
         d="M 61.035034,46.63488 50.000049,29.293302 38.965063,46.63488 Z"
         style="fill:#27ae60;stroke-width:1.334"
         id="path14" />
      <path
         d="M 61.035034,46.63488 H 38.965063 L 25.428422,67.908 H 46.05507 v -1.102259 h 7.889441 V 67.908 h 20.627165 z"
         style="fill:#27ae60;stroke-width:1.334"
         id="path11" />
      <path
         d="M 53.944511,67.908 V 66.805741 H 46.05507 V 67.908 Z"
         style="fill:#27ae60;stroke-width:1.334"
         id="path12" />
      <path
         d="M 53.944511,67.908 H 46.05507 v 11.623063 h 7.889441 z"
         style="fill:#27ae60;stroke-width:1.334"
         id="path10" />
    </g>
    <circle
       style="fill:none;stroke:#000000;stroke-width:4.3;stroke-opacity:1;stroke-dasharray:none;stroke-linecap:round;paint-order:markers fill stroke;stroke-linejoin:bevel;stroke-dashoffset:12.04000053"
       id="path17"
       cx="50"
       cy="50"
       r="40.274422"
       inkscape:label="path17" />
    <path
       style="fill:#27ae60;fill-opacity:1;stroke:#27ae60;stroke-width:0.428659"
       d="m 174.11977,291.06398 v -21.93501 h 14.8784 14.87839 v 21.93501 21.93501 h -14.87839 -14.8784 z"
       id="path18"
       transform="scale(0.26458333)" />
    <path
       style="fill:#27ae60;fill-opacity:1;stroke:#27ae60;stroke-width:0.428659"
       d="m 173.94973,291.10658 v -22.06245 l -38.85045,-0.0213 -38.850446,-0.0213 24.971026,-39.25547 24.97103,-39.25546 42.77637,-0.002 42.77637,-0.002 24.96285,39.2273 c 13.72957,21.57501 24.96285,39.25055 24.96285,39.27897 0,0.0284 -17.46511,0.0517 -38.81136,0.0517 H 204.0466 v 22.06254 22.06253 h -15.04843 -15.04844 z m 15.04844,-26.14357 h 14.87532 l 0.0251,1.99801 0.0252,1.998 -0.002,-2.01926 -0.002,-2.01925 -14.94216,-0.0215 -14.94216,-0.0215 0.0196,2.06196 0.0196,2.06196 0.0244,-2.01921 0.0244,-2.01922 z"
       id="path19"
       transform="scale(0.26458333)" />
    <path
       style="fill:#27ae60;fill-opacity:1;stroke:#27ae60;stroke-width:1.71463"
       d="m 148.74289,186.78766 c 0.6274,-0.98197 9.90172,-15.55855 20.60959,-32.3924 10.70787,-16.83384 19.50729,-30.65027 19.55426,-30.70316 0.0669,-0.0754 14.61662,22.72305 40.91787,64.11579 l 0.4862,0.76518 h -41.35433 -41.35432 z"
       id="path20"
       transform="scale(0.26458333)" />
    <path
       style="fill:#27ae60;fill-opacity:1;stroke:#27ae60;stroke-width:1.21243"
       d="m 173.8607,291.21066 v -22.00312 h -38.83611 c -21.35985,0 -38.836099,-0.0586 -38.836099,-0.13026 0,-0.23117 49.586409,-78.11782 50.208989,-78.86454 0.52275,-0.62699 0.54794,-0.73191 0.19248,-0.80162 -0.32386,-0.0635 -0.35015,-0.15111 -0.12631,-0.42083 0.24333,-0.2932 -1.73277,-0.34061 -14.19507,-0.34061 -7.96277,0 -14.44169,-0.0904 -14.3976,-0.20097 0.18682,-0.4684 71.03011,-110.171345 71.1394,-110.161483 0.0661,0.006 16.10465,24.812903 35.64116,55.126533 l 35.52091,55.11568 -14.44457,0.062 c -12.39733,0.0532 -14.4259,0.11065 -14.31284,0.40529 0.0725,0.1888 0.003,0.38953 -0.15535,0.44606 -0.19217,0.0688 -0.11854,0.29258 0.22268,0.67683 0.44061,0.49619 16.41678,25.54952 42.74673,67.0341 4.06072,6.39793 7.31671,11.69901 7.23554,11.78019 -0.0812,0.0812 -17.50791,0.18833 -38.72608,0.23812 l -38.57849,0.0905 v 21.97561 21.97559 H 189.01038 173.8607 Z"
       id="path21"
       transform="scale(0.26458333)" />
  </g>
  <circle
     style="fill:#000000;fill-opacity:1;stroke:#27ae60;stroke-width:1.94124;stroke-dasharray:none"
     id="path1"
     cx="116.7555"
     cy="46.415688"
     r="12.800537" />
</svg>
